<?xml version="1.0" encoding="UTF-8"?>
<!DOCTYPE svg PUBLIC "-//W3C//DTD SVG 1.1//EN" "http://www.w3.org/Graphics/SVG/1.1/DTD/svg11.dtd">
<!-- Creator: CorelDRAW X8 -->
<svg xmlns="http://www.w3.org/2000/svg" xml:space="preserve" width="54.0172mm" height="46.5666mm" version="1.1" style="shape-rendering:geometricPrecision; text-rendering:geometricPrecision; image-rendering:optimizeQuality; fill-rule:evenodd; clip-rule:evenodd"
viewBox="0 0 5402 4657"
 xmlns:xlink="http://www.w3.org/1999/xlink">
 <defs>
  <style type="text/css">
   <![CDATA[
    .fil1 {fill:none}
    .fil0 {fill:white}
   ]]>
  </style>
   <clipPath id="id0">
    <path d="M177 1514l2524 2868 -148 158 -2536 -2876 160 -150zm2533 2858l2515 -2858 160 150 -2536 2876 -136 -144 -3 -24zm-9 10l0 1 0 0 0 0 0 -1zm998 -2723l1024 -12 -1646 1905 622 -1893zm-286 -12l-712 1 0 0 -712 -1 712 2277 712 -2277zm-107 -291l-605 -684 -605 684 605 0 0 0 605 0zm707 -681l-444 683 -436 -683 880 0zm655 683l-445 -683 -436 683 881 0zm-332 -1021l890 1176 -1 0 176 -135 -888 -1172 -177 131zm4 -220l-1639 0 0 0 -1639 0 0 218 1639 0 0 0 1639 0 0 -218zm-2637 1542l-1025 -12 1646 1905 -621 -1893zm-315 -984l445 683 436 -683 -881 0zm-654 683l444 -683 437 683 -881 0zm332 -1021l-890 1176 1 0 -176 -135 888 -1172 177 131z"/>
   </clipPath>
    <clipPath id="id1">
     <path d="M177 1514l2524 2868 -148 158 -2536 -2876 160 -150zm2533 2858l2515 -2858 160 150 -2536 2876 -136 -144 -3 -24zm-9 10l0 1 0 0 0 0 0 -1zm998 -2723l1024 -12 -1646 1905 622 -1893zm-286 -12l-712 1 0 0 -712 -1 712 2277 712 -2277zm-107 -291l-605 -684 -605 684 605 0 0 0 605 0zm707 -681l-444 683 -436 -683 880 0zm655 683l-445 -683 -436 683 881 0zm-332 -1021l890 1176 -1 0 176 -135 -888 -1172 -177 131zm4 -220l-1639 0 0 0 -1639 0 0 218 1639 0 0 0 1639 0 0 -218zm-2637 1542l-1025 -12 1646 1905 -621 -1893zm-315 -984l445 683 436 -683 -881 0zm-654 683l444 -683 437 683 -881 0zm332 -1021l-890 1176 1 0 -176 -135 888 -1172 177 131z"/>
    </clipPath>
    <clipPath id="id2">
     <path d="M177 1514l2524 2868 -148 158 -2536 -2876 160 -150zm2533 2858l2515 -2858 160 150 -2536 2876 -136 -144 -3 -24zm-9 10l0 1 0 0 0 0 0 -1zm998 -2723l1024 -12 -1646 1905 622 -1893zm-286 -12l-712 1 0 0 -712 -1 712 2277 712 -2277zm-107 -291l-605 -684 -605 684 605 0 0 0 605 0zm707 -681l-444 683 -436 -683 880 0zm655 683l-445 -683 -436 683 881 0zm-332 -1021l890 1176 -1 0 176 -135 -888 -1172 -177 131zm4 -220l-1639 0 0 0 -1639 0 0 218 1639 0 0 0 1639 0 0 -218zm-2637 1542l-1025 -12 1646 1905 -621 -1893zm-315 -984l445 683 436 -683 -881 0zm-654 683l444 -683 437 683 -881 0zm332 -1021l-890 1176 1 0 -176 -135 888 -1172 177 131z"/>
    </clipPath>
    <clipPath id="id3">
     <path d="M177 1514l2524 2868 -148 158 -2536 -2876 160 -150zm2533 2858l2515 -2858 160 150 -2536 2876 -136 -144 -3 -24zm-9 10l0 1 0 0 0 0 0 -1zm998 -2723l1024 -12 -1646 1905 622 -1893zm-286 -12l-712 1 0 0 -712 -1 712 2277 712 -2277zm-107 -291l-605 -684 -605 684 605 0 0 0 605 0zm707 -681l-444 683 -436 -683 880 0zm655 683l-445 -683 -436 683 881 0zm-332 -1021l890 1176 -1 0 176 -135 -888 -1172 -177 131zm4 -220l-1639 0 0 0 -1639 0 0 218 1639 0 0 0 1639 0 0 -218zm-2637 1542l-1025 -12 1646 1905 -621 -1893zm-315 -984l445 683 436 -683 -881 0zm-654 683l444 -683 437 683 -881 0zm332 -1021l-890 1176 1 0 -176 -135 888 -1172 177 131z"/>
    </clipPath>
    <clipPath id="id4">
     <path d="M177 1514l2524 2868 -148 158 -2536 -2876 160 -150zm2533 2858l2515 -2858 160 150 -2536 2876 -136 -144 -3 -24zm-9 10l0 1 0 0 0 0 0 -1zm998 -2723l1024 -12 -1646 1905 622 -1893zm-286 -12l-712 1 0 0 -712 -1 712 2277 712 -2277zm-107 -291l-605 -684 -605 684 605 0 0 0 605 0zm707 -681l-444 683 -436 -683 880 0zm655 683l-445 -683 -436 683 881 0zm-332 -1021l890 1176 -1 0 176 -135 -888 -1172 -177 131zm4 -220l-1639 0 0 0 -1639 0 0 218 1639 0 0 0 1639 0 0 -218zm-2637 1542l-1025 -12 1646 1905 -621 -1893zm-315 -984l445 683 436 -683 -881 0zm-654 683l444 -683 437 683 -881 0zm332 -1021l-890 1176 1 0 -176 -135 888 -1172 177 131z"/>
    </clipPath>
 </defs>
 <g id="Camada_x0020_1">
  <metadata id="CorelCorpID_0Corel-Layer"/>
  <path class="fil0" d="M177 1514l2524 2868 -148 158 -2536 -2876 160 -150zm2533 2858l2515 -2858 160 150 -2536 2876 -136 -144 -3 -24zm-9 10l0 1 0 0 0 0 0 -1zm998 -2723l1024 -12 -1646 1905 622 -1893zm-286 -12l-712 1 0 0 -712 -1 712 2277 712 -2277zm-107 -291l-605 -684 -605 684 605 0 0 0 605 0zm707 -681l-444 683 -436 -683 880 0zm655 683l-445 -683 -436 683 881 0zm-332 -1021l890 1176 -1 0 176 -135 -888 -1172 -177 131zm4 -220l-1639 0 0 0 -1639 0 0 218 1639 0 0 0 1639 0 0 -218zm-2637 1542l-1025 -12 1646 1905 -621 -1893zm-315 -984l445 683 436 -683 -881 0zm-654 683l444 -683 437 683 -881 0zm332 -1021l-890 1176 1 0 -176 -135 888 -1172 177 131z"/>
  <g style="clip-path:url(#id0)">
   <g id="_1673112406064">
   </g>
   <g style="clip-path:url(#id1)">
   </g>
   <g style="clip-path:url(#id2)">
    <image x="-25193" y="-6825" width="44335" height="25959" xlink:href="28724-logo-diamante-branco-c83b7339-04b0-44ef-84e7-d2858e320036_Images\28724-logo-diamante-branco-c83b7339-04b0-44ef-84e7-d2858e320036_ImgID1.png"/>
   </g>
   <g style="clip-path:url(#id3)">
   </g>
   <g style="clip-path:url(#id4)">
   </g>
  </g>
  <path class="fil1" d="M177 1514l2524 2868 -148 158 -2536 -2876 160 -150zm2533 2858l2515 -2858 160 150 -2536 2876 -136 -144 -3 -24zm-9 10l0 1 0 0 0 0 0 -1zm998 -2723l1024 -12 -1646 1905 622 -1893zm-286 -12l-712 1 0 0 -712 -1 712 2277 712 -2277zm-107 -291l-605 -684 -605 684 605 0 0 0 605 0zm707 -681l-444 683 -436 -683 880 0zm655 683l-445 -683 -436 683 881 0zm-332 -1021l890 1176 -1 0 176 -135 -888 -1172 -177 131zm4 -220l-1639 0 0 0 -1639 0 0 218 1639 0 0 0 1639 0 0 -218zm-2637 1542l-1025 -12 1646 1905 -621 -1893zm-315 -984l445 683 436 -683 -881 0zm-654 683l444 -683 437 683 -881 0zm332 -1021l-890 1176 1 0 -176 -135 888 -1172 177 131z"/>
 </g>
</svg>
